# Blender v2.77 (sub 0) OBJ File: 'wisteria_bridge_Circle01.blend'
# www.blender.org
mtllib wisteria_flower.mtl
o Plane
v 0.011266 -0.149367 -0.004956
v 0.058554 -0.122588 -0.014409
v -0.008570 -0.129661 0.004956
v 0.009057 -0.107487 -0.003852
v 0.009336 -0.098058 0.014410
v 0.030504 -0.041023 0.002015
v -0.005364 -0.048543 -0.006427
v -0.000464 -0.096241 -0.022854
v -0.014100 -0.113384 0.022854
v 0.047224 0.029587 0.061661
v 0.028037 0.018804 -0.035831
v 0.043108 0.000721 0.017543
v 0.042199 0.045005 -0.011347
v 0.020233 -0.012358 0.015404
v 0.019340 -0.063959 -0.016116
v 0.048949 -0.070063 0.013975
v 0.066520 -0.017786 0.009322
v 0.028190 -0.001652 0.045844
v 0.018645 0.054385 -0.006973
v -0.070936 0.010802 0.043161
v -0.014483 0.008906 0.010810
v -0.059652 0.045611 0.020536
v -0.005352 -0.003384 0.036024
v -0.018349 -0.068761 0.046529
v 0.005944 -0.067597 0.005618
v -0.022810 -0.015805 -0.011844
v 0.019388 0.017772 0.018258
v 0.021085 -0.151199 -0.003287
v 0.030400 -0.167234 0.003287
v 0.015294 -0.178404 -0.002555
v 0.002381 -0.204389 -0.006983
v -0.002884 -0.191570 0.006983
v 0.001433 -0.176645 -0.005088
vt 0.8021 0.7846
vt 0.8045 0.9737
vt 0.6130 0.7870
vt 0.4186 0.4181
vt 0.0228 0.4153
vt 0.4215 0.0223
vt 0.2743 0.6678
vt 0.0538 0.4316
vt 0.5105 0.4473
vt 0.6064 0.7594
vt 0.6115 0.4223
vt 0.9435 0.7645
vt 0.2935 0.7090
vt 0.5628 0.9849
vt 0.0176 0.9784
vt 0.6969 0.2664
vt 0.4415 0.0230
vt 0.9403 0.0109
vt 0.2808 0.6932
vt 0.0136 0.9581
vt 0.0159 0.4261
vt 0.2886 0.6792
vt 0.5928 0.3750
vt 0.5928 0.9834
vt 0.0221 0.0093
vt 0.4158 0.0148
vt 0.0166 0.4029
vt 0.6901 0.8874
vt 0.6011 0.9757
vt 0.6018 0.7983
vt 0.7037 0.8884
vt 0.7932 0.9763
vt 0.6158 0.9779
vn -0.4470 -0.0000 -0.8945
vn -0.5053 -0.0000 -0.8629
vn -0.9583 0.0000 -0.2859
vn 0.9968 -0.0282 -0.0746
vn 0.9915 -0.0798 0.1025
vn 0.6478 -0.1513 0.7467
vn -0.3145 -0.1381 -0.9392
vn -0.1352 -0.1309 -0.9821
vn 0.5625 0.0337 -0.8261
vn 0.4317 -0.1160 -0.8945
vn -0.9382 -0.0084 -0.3460
usemtl None
s off
f 3/1/1 4/2/1 1/3/1
f 5/4/2 6/5/2 2/6/2
f 8/7/3 9/8/3 7/9/3
f 12/10/4 13/11/4 10/12/4
f 14/13/5 15/14/5 11/15/5
f 17/16/6 18/17/6 16/18/6
f 21/19/7 22/20/7 19/21/7
f 23/22/8 24/23/8 20/24/8
f 26/25/9 27/26/9 25/27/9
f 29/28/10 30/29/10 28/30/10
f 32/31/11 33/32/11 31/33/11
